# xmcd CD database file
#
# Track frame offsets:
#	150
#	26542
#	52952
#	68461
#	93098
#	123573
#	144017
#	172964
#	189909
#	212716
#
# Disc length: 3234 seconds
#
# Revision: 0
# Processed by: cddbd v1.5.2PL0 Copyright (c) Steve Scherf et al.
# Submitted via: CDex 1.51
#
DISCID=760ca00a
DTITLE=Stan Laferrière Tentet - A Duke's Scent - Live
DYEAR=1998
DGENRE=Jazz
TTITLE0=N.S.V.P.
TTITLE1=Friday
TTITLE2=Ça sent l'Jazz
TTITLE3=Phil. D. P. sérénade
TTITLE4=Q.L.J.D.
TTITLE5=In A Mellow Tone
TTITLE6=Mood Indigo
TTITLE7=Black Beauty
TTITLE8=In A Sentimental Mood
TTITLE9=Now
EXTD=YEAR: 1998
EXTT0=
EXTT1=
EXTT2=
EXTT3=
EXTT4=
EXTT5=
EXTT6=
EXTT7=
EXTT8=
EXTT9=
PLAYORDER=
